<?xml version="1.0" encoding="utf-8"?>
<!-- Generator: Adobe Illustrator 25.4.0, SVG Export Plug-In . SVG Version: 6.00 Build 0)  -->
<svg version="1.1" id="Capa_1" xmlns="http://www.w3.org/2000/svg" xmlns:xlink="http://www.w3.org/1999/xlink" x="0px" y="0px"
	 viewBox="0 0 100 100" style="enable-background:new 0 0 100 100;" xml:space="preserve">
<style type="text/css">
	.st0{fill:#FFFFFF;stroke:#010202;stroke-width:0.7118;stroke-linecap:square;stroke-linejoin:bevel;stroke-miterlimit:10;}
	.st1{fill:#FFFFFF;stroke:#010202;stroke-width:1.898;stroke-linecap:square;stroke-miterlimit:10;}
	.st2{fill:#FFFFFF;stroke:#010202;stroke-width:0.7118;stroke-linecap:square;stroke-miterlimit:10;}
	.st3{fill:none;stroke:#010202;stroke-width:0.4745;stroke-miterlimit:10;}
	.st4{fill:none;stroke:#010202;stroke-width:0.2373;stroke-miterlimit:10;}
</style>
<g>
	<polyline class="st0" points="4.5,94.3 36.7,59 44.4,65.3 10,98.8 	"/>
	<g>
		<polygon class="st1" points="43.9,3.2 41.4,23.2 36.5,23.9 36.6,28.5 19.1,35.6 36.6,49.5 33.8,69.6 53,62.3 70.2,77.2 72.8,57.6 
			77.3,56.8 77.2,52.1 95.5,44.6 77.8,31.5 81.5,10.4 61.9,18.4 		"/>
		<polygon class="st0" points="37.2,24.4 51.6,47.1 62.7,33.5 		"/>
		<polygon class="st0" points="38.5,42.5 37.2,24.4 51.6,47.1 		"/>
		<polygon class="st2" points="20.2,35.8 38.5,42.5 37.5,28.8 		"/>
		<polygon class="st0" points="37.2,49.3 38.5,42.5 19.3,35.6 		"/>
		<polygon class="st0" points="34.1,69.1 51.6,47.1 38.5,42.5 		"/>
		<polygon class="st0" points="59.1,59 51.6,47.1 34.1,69.1 		"/>
		<polygon class="st0" points="70,75.5 59.1,59 72.7,57.1 		"/>
		<polygon class="st0" points="77,56.3 51.6,47.1 59.1,59 		"/>
		<polygon class="st0" points="62.7,33.5 77,56.3 75.9,38.2 		"/>
		<polygon class="st0" points="94,45 75.9,38.2 76.8,51.8 		"/>
		<polyline class="st0" points="62.7,33.5 75.9,38.2 81,11.2 		"/>
		<polygon class="st0" points="81.1,10.7 62.7,33.5 55.1,21.7 		"/>
		<polygon class="st0" points="44.4,4.8 55.1,21.7 41.7,23.7 		"/>
	</g>
	<polyline class="st3" points="20.6,35.6 20.6,35.6 20.4,35.8 20.3,35.9 	"/>
	<line class="st3" x1="37.4" y1="26.3" x2="37.4" y2="26.3"/>
	<polyline class="st3" points="38.3,44 38.2,44 38.2,44 	"/>
	<g>
		<g>
			<line class="st4" x1="50.4" y1="45.2" x2="47.5" y2="45.5"/>
			<line class="st4" x1="48.8" y1="42.7" x2="41.4" y2="43.4"/>
			<line class="st4" x1="47.2" y1="40.2" x2="38.7" y2="41"/>
			<line class="st4" x1="45.6" y1="37.7" x2="38.5" y2="38.3"/>
			<line class="st4" x1="44.2" y1="35.2" x2="38.3" y2="35.7"/>
			<line class="st4" x1="42.5" y1="32.7" x2="38.1" y2="33.1"/>
			<line class="st4" x1="40.9" y1="30.2" x2="37.9" y2="30.5"/>
			<line class="st4" x1="39.3" y1="27.7" x2="37.7" y2="27.8"/>
		</g>
		<g>
			<line class="st4" x1="60.8" y1="33.1" x2="60.5" y2="30.2"/>
			<line class="st4" x1="58" y1="32" x2="57.3" y2="24.8"/>
			<line class="st4" x1="55.3" y1="30.9" x2="54.3" y2="22"/>
			<line class="st4" x1="52.5" y1="29.8" x2="51.7" y2="22.3"/>
			<line class="st4" x1="49.7" y1="28.8" x2="49.1" y2="22.6"/>
			<line class="st4" x1="47" y1="27.7" x2="46.5" y2="22.9"/>
			<line class="st4" x1="44.2" y1="26.6" x2="43.9" y2="23.2"/>
			<line class="st4" x1="41.5" y1="26" x2="41.3" y2="23.6"/>
		</g>
		<g>
			<line class="st4" x1="48.5" y1="8" x2="46.7" y2="8.7"/>
			<line class="st4" x1="50.8" y1="9.9" x2="48.2" y2="10.9"/>
			<line class="st4" x1="53.1" y1="11.8" x2="49.6" y2="13.2"/>
			<line class="st4" x1="55.5" y1="13.7" x2="51" y2="15.5"/>
			<line class="st4" x1="57.8" y1="15.6" x2="52.4" y2="17.7"/>
			<line class="st4" x1="60.1" y1="17.5" x2="53.9" y2="20"/>
		</g>
		<g>
			<line class="st4" x1="63.8" y1="35.8" x2="67.5" y2="35.4"/>
			<line class="st4" x1="65.4" y1="38.3" x2="73.6" y2="37.6"/>
			<line class="st4" x1="67" y1="40.8" x2="76" y2="40"/>
			<line class="st4" x1="68.6" y1="43.3" x2="76.2" y2="42.6"/>
			<line class="st4" x1="70.2" y1="45.8" x2="76.3" y2="45.2"/>
			<line class="st4" x1="71.8" y1="48.3" x2="76.5" y2="47.9"/>
			<line class="st4" x1="73.4" y1="50.8" x2="76.7" y2="50.5"/>
			<line class="st4" x1="74.9" y1="53.3" x2="76.9" y2="53.1"/>
		</g>
		<g>
			<line class="st4" x1="53.8" y1="47.9" x2="54.1" y2="50.7"/>
			<line class="st4" x1="56.6" y1="48.9" x2="57.3" y2="56.1"/>
			<line class="st4" x1="59.4" y1="50" x2="60.3" y2="59"/>
			<line class="st4" x1="62.1" y1="51.1" x2="62.9" y2="58.6"/>
			<line class="st4" x1="64.9" y1="52.2" x2="65.5" y2="58.3"/>
			<line class="st4" x1="67.6" y1="53.3" x2="68.1" y2="58"/>
			<line class="st4" x1="70.4" y1="54" x2="70.7" y2="57.7"/>
			<line class="st4" x1="73.1" y1="55" x2="73.4" y2="57.4"/>
		</g>
		<g>
			<line class="st4" x1="66.1" y1="73" x2="67.9" y2="72.3"/>
			<line class="st4" x1="63.8" y1="71.1" x2="66.5" y2="70"/>
			<line class="st4" x1="61.5" y1="69.2" x2="65" y2="67.8"/>
			<line class="st4" x1="59.2" y1="67.3" x2="63.6" y2="65.5"/>
			<line class="st4" x1="56.8" y1="65.4" x2="62.2" y2="63.2"/>
			<line class="st4" x1="54.5" y1="63.4" x2="60.7" y2="61"/>
		</g>
		<g>
			<line class="st4" x1="89.5" y1="43.7" x2="91.1" y2="42.5"/>
			<line class="st4" x1="86.8" y1="42.5" x2="89.1" y2="40.7"/>
			<line class="st4" x1="84" y1="41.3" x2="87.1" y2="39"/>
			<line class="st4" x1="81.3" y1="40.1" x2="85" y2="37.2"/>
			<line class="st4" x1="78.5" y1="38.9" x2="83" y2="35.4"/>
			<line class="st4" x1="75.8" y1="37.8" x2="81" y2="33.6"/>
		</g>
		<g>
			<line class="st4" x1="24.7" y1="37.2" x2="23.2" y2="38.4"/>
			<line class="st4" x1="27.4" y1="38.3" x2="25.2" y2="40.1"/>
			<line class="st4" x1="30.2" y1="39.5" x2="27.2" y2="41.9"/>
			<line class="st4" x1="33" y1="40.6" x2="29.3" y2="43.6"/>
			<line class="st4" x1="35.8" y1="41.7" x2="31.3" y2="45.4"/>
			<line class="st4" x1="38.5" y1="42.9" x2="33.3" y2="47.1"/>
		</g>
	</g>
</g>
</svg>
