<?xml version="1.0" encoding="utf-8"?>
<!-- Generator: Adobe Illustrator 25.4.0, SVG Export Plug-In . SVG Version: 6.00 Build 0)  -->
<svg version="1.1" id="Capa_1" xmlns="http://www.w3.org/2000/svg" xmlns:xlink="http://www.w3.org/1999/xlink" x="0px" y="0px"
	 viewBox="0 0 350 142" style="enable-background:new 0 0 350 142;" xml:space="preserve">
<style type="text/css">
	.st0{stroke:#000000;stroke-miterlimit:10;}
	.st1{stroke:#000000;stroke-width:0.882;stroke-miterlimit:10;}
	.st2{stroke:#000000;stroke-width:0.8;stroke-miterlimit:10;}
	.st3{stroke:#000000;stroke-width:0.75;stroke-miterlimit:10;}
	.st4{stroke:#000000;stroke-width:0.7;stroke-miterlimit:10;}
	.st5{stroke:#000000;stroke-width:0.65;stroke-miterlimit:10;}
	.st6{stroke:#000000;stroke-width:0.58;stroke-miterlimit:10;}
	.st7{stroke:#000000;stroke-width:0.5;stroke-miterlimit:10;}
	.st8{stroke:#000000;stroke-width:0.45;stroke-miterlimit:10;}
	.st9{stroke:#000000;stroke-width:0.4;stroke-miterlimit:10;}
	.st10{stroke:#000000;stroke-width:0.35;stroke-miterlimit:10;}
	.st11{stroke:#000000;stroke-width:0.3;stroke-miterlimit:10;}
	.st12{stroke:#000000;stroke-width:0.25;stroke-miterlimit:10;}
	.st13{stroke:#000000;stroke-width:0.2;stroke-miterlimit:10;}
	.st14{stroke:#000000;stroke-width:0.15;stroke-miterlimit:10;}
	.st15{stroke:#000000;stroke-width:0.1;stroke-miterlimit:10;}
	.st16{stroke:#000000;stroke-width:5.000000e-02;stroke-miterlimit:10;}
</style>
<polygon class="st0" points="177.6,66.5 172.4,66.5 169.8,71 172.4,75.5 177.6,75.5 180.2,71 "/>
<polygon class="st1" points="183.2,56.9 178.5,56.9 176.2,60.9 178.5,64.9 183.2,64.9 185.5,60.9 "/>
<polygon class="st2" points="188.9,47.1 184.7,47.1 182.6,50.7 184.7,54.3 188.9,54.3 191,50.7 "/>
<polygon class="st3" points="194.7,37.2 190.7,37.2 188.8,40.6 190.7,44 194.7,44 196.6,40.6 "/>
<polygon class="st4" points="200.5,27.3 196.8,27.3 195,30.4 196.8,33.6 200.5,33.6 202.3,30.4 "/>
<polygon class="st5" points="206.3,17.3 202.9,17.3 201.2,20.3 202.9,23.2 206.3,23.2 208,20.3 "/>
<polygon class="st6" points="212,7.5 209,7.5 207.5,10.2 209,12.8 212,12.8 213.5,10.2 "/>
<polygon class="st6" points="141,129.2 138,129.2 136.4,131.8 138,134.5 141,134.5 142.5,131.8 "/>
<polygon class="st5" points="147.1,118.8 143.7,118.8 142,121.7 143.7,124.7 147.1,124.7 148.8,121.7 "/>
<polygon class="st4" points="153.2,108.4 149.5,108.4 147.7,111.6 149.5,114.7 153.2,114.7 155,111.6 "/>
<polygon class="st3" points="159.2,98 155.3,98 153.3,101.4 155.3,104.8 159.2,104.8 161.2,101.4 "/>
<polygon class="st2" points="165.3,87.7 161.1,87.7 159,91.3 161.1,94.9 165.3,94.9 167.4,91.3 "/>
<polygon class="st1" points="171.4,77.1 166.8,77.1 164.5,81.1 166.8,85.1 171.4,85.1 173.7,81.1 "/>
<polygon class="st1" points="165.5,67 160.9,67 158.6,71 160.9,75 165.5,75 167.8,71 "/>
<polygon class="st1" points="171.4,56.9 166.7,56.9 164.4,60.9 166.7,64.9 171.4,64.9 173.7,60.9 "/>
<polygon class="st2" points="177.1,47.1 172.9,47.1 170.8,50.7 172.9,54.3 177.1,54.3 179.2,50.7 "/>
<polygon class="st3" points="182.9,37.2 179,37.2 177,40.6 179,44 182.9,44 184.8,40.6 "/>
<polygon class="st4" points="188.7,27.3 185,27.3 183.2,30.4 185,33.6 188.7,33.6 190.5,30.4 "/>
<polygon class="st5" points="194.5,17.3 191.1,17.3 189.4,20.3 191.1,23.2 194.5,23.2 196.2,20.3 "/>
<polygon class="st6" points="200.2,7.5 197.2,7.5 195.7,10.2 197.2,12.8 200.2,12.8 201.8,10.2 "/>
<polygon class="st7" points="129,129.6 126.4,129.6 125.1,131.8 126.4,134.1 129,134.1 130.3,131.8 "/>
<polygon class="st6" points="135.1,119.1 132.1,119.1 130.6,121.7 132.1,124.3 135.1,124.3 136.7,121.7 "/>
<polygon class="st5" points="141.2,108.6 137.8,108.6 136.1,111.6 137.8,114.5 141.2,114.5 142.9,111.6 "/>
<polygon class="st4" points="147.3,98.2 143.6,98.2 141.8,101.4 143.6,104.6 147.3,104.6 149.1,101.4 "/>
<polygon class="st3" points="153.4,87.9 149.4,87.9 147.5,91.3 149.4,94.7 153.4,94.7 155.3,91.3 "/>
<polygon class="st2" points="159.4,77.5 155.2,77.5 153.1,81.1 155.2,84.8 159.4,84.8 161.5,81.1 "/>
<polygon class="st2" points="153.5,67.4 149.3,67.4 147.2,71 149.3,74.6 153.5,74.6 155.6,71 "/>
<polygon class="st2" points="159.4,57.2 155.2,57.2 153.1,60.9 155.2,64.5 159.4,64.5 161.5,60.9 "/>
<polygon class="st2" points="165.3,47.1 161.1,47.1 159,50.7 161.1,54.3 165.3,54.3 167.4,50.7 "/>
<polygon class="st3" points="171.1,37.2 167.2,37.2 165.2,40.6 167.2,44 171.1,44 173.1,40.6 "/>
<polygon class="st4" points="176.9,27.3 173.2,27.3 171.4,30.4 173.2,33.6 176.9,33.6 178.7,30.4 "/>
<polygon class="st5" points="182.7,17.3 179.3,17.3 177.6,20.3 179.3,23.2 182.7,23.2 184.4,20.3 "/>
<polygon class="st6" points="188.4,7.5 185.4,7.5 183.9,10.2 185.4,12.8 188.4,12.8 190,10.2 "/>
<polygon class="st8" points="117.1,129.8 114.7,129.8 113.5,131.8 114.7,133.9 117.1,133.9 118.2,131.8 "/>
<polygon class="st7" points="123.1,119.4 120.5,119.4 119.2,121.7 120.5,124 123.1,124 124.4,121.7 "/>
<polygon class="st6" points="129.3,108.9 126.2,108.9 124.7,111.6 126.2,114.2 129.3,114.2 130.8,111.6 "/>
<polygon class="st5" points="135.4,98.5 132,98.5 130.3,101.4 132,104.4 135.4,104.4 137.1,101.4 "/>
<polygon class="st4" points="141.4,88.1 137.8,88.1 135.9,91.3 137.8,94.5 141.4,94.5 143.3,91.3 "/>
<polygon class="st3" points="147.5,77.7 143.6,77.7 141.6,81.1 143.6,84.5 147.5,84.5 149.5,81.1 "/>
<polygon class="st3" points="141.6,67.6 137.7,67.6 135.7,71 137.7,74.4 141.6,74.4 143.6,71 "/>
<polygon class="st3" points="147.4,57.5 143.5,57.5 141.5,60.9 143.5,64.3 147.4,64.3 149.4,60.9 "/>
<polygon class="st3" points="153.4,47.3 149.4,47.3 147.5,50.7 149.4,54.1 153.4,54.1 155.3,50.7 "/>
<polygon class="st3" points="159.3,37.2 155.4,37.2 153.4,40.6 155.4,44 159.3,44 161.3,40.6 "/>
<polygon class="st4" points="165.1,27.3 161.4,27.3 159.6,30.4 161.4,33.6 165.1,33.6 166.9,30.4 "/>
<polygon class="st5" points="170.9,17.3 167.5,17.3 165.8,20.3 167.5,23.2 170.9,23.2 172.6,20.3 "/>
<polygon class="st6" points="176.6,7.5 173.6,7.5 172.1,10.2 173.6,12.8 176.6,12.8 178.2,10.2 "/>
<polygon class="st9" points="105.1,130 103,130 102,131.8 103,133.7 105.1,133.7 106.2,131.8 "/>
<polygon class="st8" points="111.2,119.7 108.8,119.7 107.7,121.7 108.8,123.7 111.2,123.7 112.4,121.7 "/>
<polygon class="st7" points="117.3,109.3 114.6,109.3 113.3,111.6 114.6,113.8 117.3,113.8 118.6,111.6 "/>
<polygon class="st6" points="123.4,98.8 120.4,98.8 118.9,101.4 120.4,104.1 123.4,104.1 124.9,101.4 "/>
<polygon class="st5" points="129.5,88.3 126.1,88.3 124.4,91.3 126.1,94.2 129.5,94.2 131.2,91.3 "/>
<polygon class="st4" points="135.6,78 131.9,78 130.1,81.1 131.9,84.3 135.6,84.3 137.4,81.1 "/>
<polygon class="st4" points="129.7,67.8 126,67.8 124.2,71 126,74.2 129.7,74.2 131.5,71 "/>
<polygon class="st4" points="135.5,57.7 131.8,57.7 130,60.9 131.8,64 135.5,64 137.3,60.9 "/>
<polygon class="st4" points="141.4,47.5 137.8,47.5 135.9,50.7 137.8,53.9 141.4,53.9 143.3,50.7 "/>
<polygon class="st4" points="147.4,37.4 143.7,37.4 141.9,40.6 143.7,43.8 147.4,43.8 149.2,40.6 "/>
<polygon class="st4" points="153.3,27.3 149.6,27.3 147.8,30.4 149.6,33.6 153.3,33.6 155.1,30.4 "/>
<polygon class="st5" points="159.1,17.3 155.7,17.3 154,20.3 155.7,23.2 159.1,23.2 160.8,20.3 "/>
<polygon class="st6" points="164.9,7.5 161.8,7.5 160.3,10.2 161.8,12.8 164.9,12.8 166.4,10.2 "/>
<polygon class="st10" points="93.2,130.3 91.4,130.3 90.5,131.8 91.4,133.4 93.2,133.4 94.1,131.8 "/>
<polygon class="st9" points="99.3,119.9 97.2,119.9 96.1,121.7 97.2,123.5 99.3,123.5 100.3,121.7 "/>
<polygon class="st8" points="105.3,109.5 103,109.5 101.8,111.6 103,113.6 105.3,113.6 106.5,111.6 "/>
<polygon class="st7" points="111.4,99.2 108.8,99.2 107.5,101.4 108.8,103.7 111.4,103.7 112.7,101.4 "/>
<polygon class="st6" points="117.5,88.7 114.5,88.7 113,91.3 114.5,93.9 117.5,93.9 119.1,91.3 "/>
<polygon class="st5" points="123.7,78.2 120.3,78.2 118.6,81.1 120.3,84.1 123.7,84.1 125.4,81.1 "/>
<polygon class="st5" points="117.7,68.1 114.3,68.1 112.6,71 114.3,73.9 117.7,73.9 119.4,71 "/>
<polygon class="st5" points="123.6,57.9 120.2,57.9 118.5,60.9 120.2,63.8 123.6,63.8 125.3,60.9 "/>
<polygon class="st5" points="129.5,47.8 126.1,47.8 124.4,50.7 126.1,53.7 129.5,53.7 131.2,50.7 "/>
<polygon class="st5" points="135.5,37.6 132,37.6 130.3,40.6 132,43.5 135.5,43.5 137.2,40.6 "/>
<polygon class="st5" points="141.4,27.5 138,27.5 136.3,30.4 138,33.4 141.4,33.4 143.1,30.4 "/>
<polygon class="st5" points="147.3,17.3 143.9,17.3 142.2,20.3 143.9,23.2 147.3,23.2 149,20.3 "/>
<polygon class="st6" points="153.1,7.5 150,7.5 148.5,10.2 150,12.8 153.1,12.8 154.6,10.2 "/>
<polygon class="st11" points="81.3,130.5 79.7,130.5 78.9,131.8 79.7,133.2 81.3,133.2 82.1,131.8 "/>
<polygon class="st10" points="87.4,120.1 85.5,120.1 84.6,121.7 85.5,123.3 87.4,123.3 88.3,121.7 "/>
<polygon class="st9" points="93.4,109.8 91.3,109.8 90.3,111.6 91.3,113.4 93.4,113.4 94.5,111.6 "/>
<polygon class="st8" points="99.5,99.4 97.1,99.4 95.9,101.4 97.1,103.5 99.5,103.5 100.7,101.4 "/>
<polygon class="st7" points="105.5,89 102.9,89 101.6,91.3 102.9,93.6 105.5,93.6 106.9,91.3 "/>
<polygon class="st6" points="111.7,78.5 108.6,78.5 107.1,81.1 108.6,83.8 111.7,83.8 113.2,81.1 "/>
<polygon class="st6" points="105.8,68.4 102.7,68.4 101.2,71 102.7,73.6 105.8,73.6 107.3,71 "/>
<polygon class="st6" points="111.6,58.2 108.6,58.2 107.1,60.9 108.6,63.5 111.6,63.5 113.1,60.9 "/>
<polygon class="st6" points="117.5,48.1 114.5,48.1 113,50.7 114.5,53.3 117.5,53.3 119.1,50.7 "/>
<polygon class="st6" points="123.5,37.9 120.4,37.9 118.9,40.6 120.4,43.2 123.5,43.2 125,40.6 "/>
<polygon class="st6" points="129.4,27.8 126.4,27.8 124.8,30.4 126.4,33.1 129.4,33.1 130.9,30.4 "/>
<polygon class="st6" points="135.3,17.7 132.3,17.7 130.8,20.3 132.3,22.9 135.3,22.9 136.9,20.3 "/>
<polygon class="st6" points="141.3,7.5 138.2,7.5 136.7,10.2 138.2,12.8 141.3,12.8 142.8,10.2 "/>
<polygon class="st11" points="69.5,130.5 67.9,130.5 67.1,131.8 67.9,133.2 69.5,133.2 70.3,131.8 "/>
<polygon class="st11" points="75.4,120.3 73.9,120.3 73.1,121.7 73.9,123.1 75.4,123.1 76.2,121.7 "/>
<polygon class="st10" points="81.5,110 79.7,110 78.7,111.6 79.7,113.2 81.5,113.2 82.4,111.6 "/>
<polygon class="st9" points="87.6,99.6 85.5,99.6 84.4,101.4 85.5,103.2 87.6,103.2 88.6,101.4 "/>
<polygon class="st8" points="93.6,89.2 91.3,89.2 90.1,91.3 91.3,93.3 93.6,93.3 94.8,91.3 "/>
<polygon class="st7" points="99.7,78.9 97.1,78.9 95.8,81.1 97.1,83.4 99.7,83.4 101,81.1 "/>
<polygon class="st7" points="93.8,68.7 91.1,68.7 89.8,71 91.1,73.3 93.8,73.3 95.1,71 "/>
<polygon class="st7" points="99.6,58.6 97,58.6 95.7,60.9 97,63.1 99.6,63.1 100.9,60.9 "/>
<polygon class="st7" points="105.5,48.4 102.9,48.4 101.6,50.7 102.9,53 105.5,53 106.9,50.7 "/>
<polygon class="st7" points="111.5,38.3 108.9,38.3 107.5,40.6 108.9,42.8 111.5,42.8 112.8,40.6 "/>
<polygon class="st7" points="117.4,28.2 114.8,28.2 113.5,30.4 114.8,32.7 117.4,32.7 118.7,30.4 "/>
<polygon class="st7" points="123.3,18 120.7,18 119.4,20.3 120.7,22.6 123.3,22.6 124.6,20.3 "/>
<polygon class="st7" points="129.3,7.9 126.6,7.9 125.3,10.2 126.6,12.4 129.3,12.4 130.6,10.2 "/>
<polygon class="st12" points="57.6,130.7 56.3,130.7 55.6,131.8 56.3,133 57.6,133 58.2,131.8 "/>
<polygon class="st11" points="63.6,120.3 62.1,120.3 61.3,121.7 62.1,123.1 63.6,123.1 64.4,121.7 "/>
<polygon class="st11" points="69.6,110.2 68,110.2 67.2,111.6 68,112.9 69.6,112.9 70.4,111.6 "/>
<polygon class="st10" points="75.6,99.8 73.8,99.8 72.9,101.4 73.8,103 75.6,103 76.6,101.4 "/>
<polygon class="st9" points="81.7,89.5 79.6,89.5 78.6,91.3 79.6,93.1 81.7,93.1 82.7,91.3 "/>
<polygon class="st8" points="87.8,79.1 85.4,79.1 84.2,81.1 85.4,83.2 87.8,83.2 88.9,81.1 "/>
<polygon class="st8" points="81.8,69 79.5,69 78.3,71 79.5,73 81.8,73 83,71 "/>
<polygon class="st8" points="87.7,58.8 85.3,58.8 84.2,60.9 85.3,62.9 87.7,62.9 88.9,60.9 "/>
<polygon class="st8" points="93.6,48.7 91.3,48.7 90.1,50.7 91.3,52.8 93.6,52.8 94.8,50.7 "/>
<polygon class="st8" points="99.6,38.5 97.2,38.5 96,40.6 97.2,42.6 99.6,42.6 100.7,40.6 "/>
<polygon class="st8" points="105.5,28.4 103.1,28.4 101.9,30.4 103.1,32.5 105.5,32.5 106.7,30.4 "/>
<polygon class="st8" points="111.4,18.3 109.1,18.3 107.9,20.3 109.1,22.3 111.4,22.3 112.6,20.3 "/>
<polygon class="st8" points="117.3,8.1 115,8.1 113.8,10.2 115,12.2 117.3,12.2 118.5,10.2 "/>
<polygon class="st13" points="45.7,130.9 44.6,130.9 44.1,131.8 44.6,132.8 45.7,132.8 46.2,131.8 "/>
<polygon class="st12" points="51.7,120.6 50.4,120.6 49.8,121.7 50.4,122.8 51.7,122.8 52.4,121.7 "/>
<polygon class="st11" points="57.8,110.2 56.2,110.2 55.4,111.6 56.2,112.9 57.8,112.9 58.6,111.6 "/>
<polygon class="st11" points="63.7,100.1 62.1,100.1 61.4,101.4 62.1,102.8 63.7,102.8 64.5,101.4 "/>
<polygon class="st10" points="69.8,89.7 67.9,89.7 67,91.3 67.9,92.9 69.8,92.9 70.7,91.3 "/>
<polygon class="st9" points="75.8,79.3 73.7,79.3 72.7,81.1 73.7,83 75.8,83 76.9,81.1 "/>
<polygon class="st9" points="69.9,69.2 67.8,69.2 66.8,71 67.8,72.8 69.9,72.8 71,71 "/>
<polygon class="st9" points="75.8,59 73.7,59 72.6,60.9 73.7,62.7 75.8,62.7 76.8,60.9 "/>
<polygon class="st9" points="81.7,48.9 79.6,48.9 78.6,50.7 79.6,52.5 81.7,52.5 82.7,50.7 "/>
<polygon class="st9" points="87.6,38.8 85.5,38.8 84.5,40.6 85.5,42.4 87.6,42.4 88.7,40.6 "/>
<polygon class="st9" points="93.6,28.6 91.5,28.6 90.4,30.4 91.5,32.2 93.6,32.2 94.6,30.4 "/>
<polygon class="st9" points="99.5,18.5 97.4,18.5 96.3,20.3 97.4,22.1 99.5,22.1 100.5,20.3 "/>
<polygon class="st9" points="105.4,8.3 103.3,8.3 102.3,10.2 103.3,12 105.4,12 106.5,10.2 "/>
<polygon class="st14" points="33.7,131.2 32.9,131.2 32.6,131.8 32.9,132.5 33.7,132.5 34.1,131.8 "/>
<polygon class="st13" points="39.8,120.8 38.7,120.8 38.2,121.7 38.7,122.6 39.8,122.6 40.3,121.7 "/>
<polygon class="st12" points="45.9,110.4 44.5,110.4 43.9,111.6 44.5,112.7 45.9,112.7 46.5,111.6 "/>
<polygon class="st11" points="51.9,100.1 50.3,100.1 49.6,101.4 50.3,102.8 51.9,102.8 52.7,101.4 "/>
<polygon class="st11" points="57.8,89.9 56.3,89.9 55.5,91.3 56.3,92.6 57.8,92.6 58.6,91.3 "/>
<polygon class="st10" points="63.9,79.6 62.1,79.6 61.2,81.1 62.1,82.7 63.9,82.7 64.8,81.1 "/>
<polygon class="st10" points="58,69.4 56.2,69.4 55.2,71 56.2,72.6 58,72.6 58.9,71 "/>
<polygon class="st10" points="63.8,59.3 62,59.3 61.1,60.9 62,62.4 63.8,62.4 64.8,60.9 "/>
<polygon class="st10" points="69.8,49.1 67.9,49.1 67,50.7 67.9,52.3 69.8,52.3 70.7,50.7 "/>
<polygon class="st10" points="75.7,39 73.9,39 73,40.6 73.9,42.2 75.7,42.2 76.6,40.6 "/>
<polygon class="st10" points="81.6,28.8 79.8,28.8 78.9,30.4 79.8,32 81.6,32 82.6,30.4 "/>
<polygon class="st10" points="87.6,18.7 85.7,18.7 84.8,20.3 85.7,21.9 87.6,21.9 88.5,20.3 "/>
<polygon class="st10" points="93.5,8.6 91.7,8.6 90.7,10.2 91.7,11.7 93.5,11.7 94.4,10.2 "/>
<polygon class="st15" points="21.8,131.4 21.3,131.4 21,131.8 21.3,132.3 21.8,132.3 22.1,131.8 "/>
<polygon class="st14" points="27.9,121 27.1,121 26.7,121.7 27.1,122.4 27.9,122.4 28.3,121.7 "/>
<polygon class="st13" points="33.9,110.7 32.9,110.7 32.4,111.6 32.9,112.5 33.9,112.5 34.5,111.6 "/>
<polygon class="st12" points="40,100.3 38.7,100.3 38,101.4 38.7,102.6 40,102.6 40.6,101.4 "/>
<polygon class="st11" points="46.1,89.9 44.5,89.9 43.7,91.3 44.5,92.6 46.1,92.6 46.8,91.3 "/>
<polygon class="st11" points="52,79.8 50.4,79.8 49.6,81.1 50.4,82.5 52,82.5 52.8,81.1 "/>
<polygon class="st11" points="46.1,69.6 44.5,69.6 43.7,71 44.5,72.4 46.1,72.4 46.9,71 "/>
<polygon class="st11" points="51.9,59.5 50.3,59.5 49.6,60.9 50.3,62.2 51.9,62.2 52.7,60.9 "/>
<polygon class="st11" points="57.8,49.4 56.3,49.4 55.5,50.7 56.3,52.1 57.8,52.1 58.6,50.7 "/>
<polygon class="st11" points="63.8,39.2 62.2,39.2 61.4,40.6 62.2,41.9 63.8,41.9 64.6,40.6 "/>
<polygon class="st11" points="69.7,29.1 68.1,29.1 67.4,30.4 68.1,31.8 69.7,31.8 70.5,30.4 "/>
<polygon class="st11" points="75.6,18.9 74.1,18.9 73.3,20.3 74.1,21.7 75.6,21.7 76.4,20.3 "/>
<polygon class="st11" points="81.6,8.8 80,8.8 79.2,10.2 80,11.5 81.6,11.5 82.4,10.2 "/>
<polygon class="st16" points="9.9,131.6 9.6,131.6 9.5,131.8 9.6,132.1 9.9,132.1 10,131.8 "/>
<polygon class="st15" points="15.9,121.3 15.4,121.3 15.2,121.7 15.4,122.2 15.9,122.2 16.2,121.7 "/>
<polygon class="st14" points="22,110.9 21.2,110.9 20.8,111.6 21.2,112.2 22,112.2 22.4,111.6 "/>
<polygon class="st13" points="28.1,100.5 27,100.5 26.5,101.4 27,102.3 28.1,102.3 28.6,101.4 "/>
<polygon class="st12" points="34.1,90.1 32.8,90.1 32.2,91.3 32.8,92.4 34.1,92.4 34.8,91.3 "/>
<polygon class="st11" points="40.2,79.8 38.6,79.8 37.8,81.1 38.6,82.5 40.2,82.5 41,81.1 "/>
<polygon class="st11" points="34.3,69.6 32.7,69.6 31.9,71 32.7,72.4 34.3,72.4 35.1,71 "/>
<polygon class="st11" points="40.1,59.5 38.6,59.5 37.8,60.9 38.6,62.2 40.1,62.2 40.9,60.9 "/>
<polygon class="st11" points="46.1,49.4 44.5,49.4 43.7,50.7 44.5,52.1 46.1,52.1 46.8,50.7 "/>
<polygon class="st11" points="52,39.2 50.4,39.2 49.6,40.6 50.4,41.9 52,41.9 52.8,40.6 "/>
<polygon class="st11" points="57.9,29.1 56.3,29.1 55.6,30.4 56.3,31.8 57.9,31.8 58.7,30.4 "/>
<polygon class="st11" points="63.8,18.9 62.3,18.9 61.5,20.3 62.3,21.7 63.8,21.7 64.6,20.3 "/>
<polygon class="st11" points="69.8,8.8 68.2,8.8 67.4,10.2 68.2,11.5 69.8,11.5 70.6,10.2 "/>
<polygon class="st15" points="10.1,111.1 9.6,111.1 9.3,111.6 9.6,112 10.1,112 10.3,111.6 "/>
<polygon class="st14" points="16.1,100.7 15.4,100.7 15,101.4 15.4,102.1 16.1,102.1 16.5,101.4 "/>
<polygon class="st13" points="22.2,90.4 21.2,90.4 20.6,91.3 21.2,92.2 22.2,92.2 22.7,91.3 "/>
<polygon class="st12" points="28.3,80 27,80 26.3,81.1 27,82.3 28.3,82.3 28.9,81.1 "/>
<polygon class="st12" points="22.3,69.9 21,69.9 20.4,71 21,72.1 22.3,72.1 23,71 "/>
<polygon class="st12" points="28.2,59.7 26.9,59.7 26.2,60.9 26.9,62 28.2,62 28.9,60.9 "/>
<polygon class="st12" points="34.1,49.6 32.8,49.6 32.2,50.7 32.8,51.9 34.1,51.9 34.8,50.7 "/>
<polygon class="st12" points="40.1,39.4 38.8,39.4 38.1,40.6 38.8,41.7 40.1,41.7 40.7,40.6 "/>
<polygon class="st12" points="46,29.3 44.7,29.3 44,30.4 44.7,31.6 46,31.6 46.6,30.4 "/>
<polygon class="st12" points="51.9,19.2 50.6,19.2 50,20.3 50.6,21.4 51.9,21.4 52.6,20.3 "/>
<polygon class="st12" points="57.9,9 56.5,9 55.9,10.2 56.5,11.3 57.9,11.3 58.5,10.2 "/>
<polygon class="st14" points="10.3,90.6 9.5,90.6 9.1,91.3 9.5,92 10.3,92 10.7,91.3 "/>
<polygon class="st13" points="16.3,80.2 15.3,80.2 14.8,81.1 15.3,82 16.3,82 16.9,81.1 "/>
<polygon class="st13" points="10.4,70.1 9.4,70.1 8.9,71 9.4,71.9 10.4,71.9 10.9,71 "/>
<polygon class="st13" points="16.3,60 15.2,60 14.7,60.9 15.2,61.8 16.3,61.8 16.8,60.9 "/>
<polygon class="st13" points="22.2,49.8 21.2,49.8 20.6,50.7 21.2,51.6 22.2,51.6 22.7,50.7 "/>
<polygon class="st13" points="28.1,39.7 27.1,39.7 26.6,40.6 27.1,41.5 28.1,41.5 28.7,40.6 "/>
<polygon class="st13" points="34.1,29.5 33,29.5 32.5,30.4 33,31.3 34.1,31.3 34.6,30.4 "/>
<polygon class="st13" points="40,19.4 39,19.4 38.4,20.3 39,21.2 40,21.2 40.5,20.3 "/>
<polygon class="st13" points="45.9,9.2 44.9,9.2 44.4,10.2 44.9,11.1 45.9,11.1 46.5,10.2 "/>
<polygon class="st14" points="10.3,50 9.5,50 9.1,50.7 9.5,51.4 10.3,51.4 10.7,50.7 "/>
<polygon class="st14" points="16.2,39.9 15.4,39.9 15,40.6 15.4,41.3 16.2,41.3 16.6,40.6 "/>
<polygon class="st14" points="22.1,29.8 21.4,29.8 21,30.4 21.4,31.1 22.1,31.1 22.5,30.4 "/>
<polygon class="st14" points="28.1,19.6 27.3,19.6 26.9,20.3 27.3,21 28.1,21 28.5,20.3 "/>
<polygon class="st14" points="34,9.5 33.2,9.5 32.8,10.2 33.2,10.8 34,10.8 34.4,10.2 "/>
<polygon class="st15" points="10.2,30 9.7,30 9.4,30.4 9.7,30.9 10.2,30.9 10.5,30.4 "/>
<polygon class="st15" points="16.2,19.8 15.6,19.8 15.4,20.3 15.6,20.7 16.2,20.7 16.4,20.3 "/>
<polygon class="st15" points="22.1,9.7 21.6,9.7 21.3,10.2 21.6,10.6 22.1,10.6 22.3,10.2 "/>
<polygon class="st16" points="10.2,9.9 9.9,9.9 9.8,10.2 9.9,10.4 10.2,10.4 10.3,10.2 "/>
<polygon class="st1" points="189.1,67 184.5,67 182.2,71 184.5,75 189.1,75 191.4,71 "/>
<polygon class="st2" points="194.7,57.2 190.5,57.2 188.5,60.9 190.5,64.5 194.7,64.5 196.8,60.9 "/>
<polygon class="st3" points="200.5,47.3 196.6,47.3 194.6,50.7 196.6,54.1 200.5,54.1 202.5,50.7 "/>
<polygon class="st4" points="206.3,37.4 202.7,37.4 200.8,40.6 202.7,43.8 206.3,43.8 208.2,40.6 "/>
<polygon class="st5" points="212.1,27.5 208.7,27.5 207,30.4 208.7,33.4 212.1,33.4 213.8,30.4 "/>
<polygon class="st6" points="217.9,17.7 214.8,17.7 213.3,20.3 214.8,22.9 217.9,22.9 219.4,20.3 "/>
<polygon class="st7" points="223.6,7.9 221,7.9 219.7,10.2 221,12.4 223.6,12.4 224.9,10.2 "/>
<polygon class="st6" points="152.8,129.2 149.7,129.2 148.2,131.8 149.7,134.5 152.8,134.5 154.3,131.8 "/>
<polygon class="st5" points="158.9,118.8 155.5,118.8 153.8,121.7 155.5,124.7 158.9,124.7 160.6,121.7 "/>
<polygon class="st4" points="165,108.4 161.3,108.4 159.5,111.6 161.3,114.7 165,114.7 166.8,111.6 "/>
<polygon class="st3" points="171,98 167.1,98 165.1,101.4 167.1,104.8 171,104.8 173,101.4 "/>
<polygon class="st2" points="177.1,87.7 172.9,87.7 170.8,91.3 172.9,94.9 177.1,94.9 179.2,91.3 "/>
<polygon class="st1" points="183.2,77.1 178.6,77.1 176.3,81.1 178.6,85.1 183.2,85.1 185.5,81.1 "/>
<polygon class="st2" points="200.7,67.4 196.5,67.4 194.4,71 196.5,74.6 200.7,74.6 202.8,71 "/>
<polygon class="st3" points="206.4,57.5 202.5,57.5 200.5,60.9 202.5,64.3 206.4,64.3 208.4,60.9 "/>
<polygon class="st4" points="212.2,47.5 208.5,47.5 206.7,50.7 208.5,53.9 212.2,53.9 214,50.7 "/>
<polygon class="st5" points="218,37.6 214.6,37.6 212.9,40.6 214.6,43.5 218,43.5 219.7,40.6 "/>
<polygon class="st6" points="223.7,27.8 220.7,27.8 219.2,30.4 220.7,33.1 223.7,33.1 225.3,30.4 "/>
<polygon class="st7" points="229.5,18 226.9,18 225.5,20.3 226.9,22.6 229.5,22.6 230.8,20.3 "/>
<polygon class="st8" points="235.3,8.1 232.9,8.1 231.7,10.2 232.9,12.2 235.3,12.2 236.4,10.2 "/>
<polygon class="st6" points="164.6,129.2 161.5,129.2 160,131.8 161.5,134.5 164.6,134.5 166.1,131.8 "/>
<polygon class="st5" points="170.7,118.8 167.3,118.8 165.6,121.7 167.3,124.7 170.7,124.7 172.4,121.7 "/>
<polygon class="st4" points="176.8,108.4 173.1,108.4 171.3,111.6 173.1,114.7 176.8,114.7 178.6,111.6 "/>
<polygon class="st3" points="182.8,98 178.9,98 176.9,101.4 178.9,104.8 182.8,104.8 184.8,101.4 "/>
<polygon class="st2" points="188.9,87.7 184.7,87.7 182.6,91.3 184.7,94.9 188.9,94.9 191,91.3 "/>
<polygon class="st2" points="194.8,77.5 190.6,77.5 188.5,81.1 190.6,84.8 194.8,84.8 196.9,81.1 "/>
<polygon class="st3" points="212.3,67.6 208.4,67.6 206.4,71 208.4,74.4 212.3,74.4 214.3,71 "/>
<polygon class="st4" points="218.1,57.7 214.4,57.7 212.6,60.9 214.4,64 218.1,64 219.9,60.9 "/>
<polygon class="st5" points="223.9,47.8 220.5,47.8 218.8,50.7 220.5,53.7 223.9,53.7 225.6,50.7 "/>
<polygon class="st6" points="229.6,37.9 226.6,37.9 225.1,40.6 226.6,43.2 229.6,43.2 231.1,40.6 "/>
<polygon class="st7" points="235.3,28.2 232.7,28.2 231.4,30.4 232.7,32.7 235.3,32.7 236.6,30.4 "/>
<polygon class="st8" points="241.1,18.3 238.8,18.3 237.6,20.3 238.8,22.3 241.1,22.3 242.3,20.3 "/>
<polygon class="st9" points="246.9,8.3 244.8,8.3 243.8,10.2 244.8,12 246.9,12 248,10.2 "/>
<polygon class="st6" points="176.4,129.2 173.3,129.2 171.8,131.8 173.3,134.5 176.4,134.5 177.9,131.8 "/>
<polygon class="st5" points="182.5,118.8 179.1,118.8 177.4,121.7 179.1,124.7 182.5,124.7 184.2,121.7 "/>
<polygon class="st4" points="188.5,108.4 184.9,108.4 183,111.6 184.9,114.7 188.5,114.7 190.4,111.6 "/>
<polygon class="st3" points="194.6,98 190.7,98 188.7,101.4 190.7,104.8 194.6,104.8 196.6,101.4 "/>
<polygon class="st3" points="200.5,87.9 196.6,87.9 194.6,91.3 196.6,94.7 200.5,94.7 202.5,91.3 "/>
<polygon class="st3" points="206.5,77.7 202.5,77.7 200.6,81.1 202.5,84.5 206.5,84.5 208.4,81.1 "/>
<polygon class="st4" points="224,67.8 220.3,67.8 218.5,71 220.3,74.2 224,74.2 225.8,71 "/>
<polygon class="st5" points="229.7,57.9 226.3,57.9 224.6,60.9 226.3,63.8 229.7,63.8 231.4,60.9 "/>
<polygon class="st6" points="235.5,48.1 232.4,48.1 230.9,50.7 232.4,53.3 235.5,53.3 237,50.7 "/>
<polygon class="st7" points="241.2,38.3 238.6,38.3 237.3,40.6 238.6,42.8 241.2,42.8 242.5,40.6 "/>
<polygon class="st8" points="247,28.4 244.6,28.4 243.5,30.4 244.6,32.5 247,32.5 248.2,30.4 "/>
<polygon class="st9" points="252.8,18.5 250.7,18.5 249.7,20.3 250.7,22.1 252.8,22.1 253.8,20.3 "/>
<polygon class="st10" points="258.6,8.6 256.8,8.6 255.8,10.2 256.8,11.7 258.6,11.7 259.5,10.2 "/>
<polygon class="st6" points="188.2,129.2 185.1,129.2 183.6,131.8 185.1,134.5 188.2,134.5 189.7,131.8 "/>
<polygon class="st5" points="194.3,118.8 190.9,118.8 189.2,121.7 190.9,124.7 194.3,124.7 196,121.7 "/>
<polygon class="st4" points="200.3,108.4 196.7,108.4 194.8,111.6 196.7,114.7 200.3,114.7 202.2,111.6 "/>
<polygon class="st4" points="206.3,98.2 202.6,98.2 200.8,101.4 202.6,104.6 206.3,104.6 208.1,101.4 "/>
<polygon class="st4" points="212.2,88.1 208.5,88.1 206.7,91.3 208.5,94.5 212.2,94.5 214,91.3 "/>
<polygon class="st4" points="218.1,78 214.5,78 212.6,81.1 214.5,84.3 218.1,84.3 220,81.1 "/>
<polygon class="st5" points="235.7,68.1 232.3,68.1 230.6,71 232.3,73.9 235.7,73.9 237.4,71 "/>
<polygon class="st6" points="241.3,58.2 238.3,58.2 236.8,60.9 238.3,63.5 241.3,63.5 242.9,60.9 "/>
<polygon class="st7" points="247.1,48.4 244.4,48.4 243.1,50.7 244.4,53 247.1,53 248.4,50.7 "/>
<polygon class="st8" points="252.9,38.5 250.5,38.5 249.3,40.6 250.5,42.6 252.9,42.6 254,40.6 "/>
<polygon class="st9" points="258.7,28.6 256.6,28.6 255.5,30.4 256.6,32.2 258.7,32.2 259.7,30.4 "/>
<polygon class="st10" points="264.5,18.7 262.6,18.7 261.7,20.3 262.6,21.9 264.5,21.9 265.4,20.3 "/>
<polygon class="st11" points="270.3,8.8 268.7,8.8 267.9,10.2 268.7,11.5 270.3,11.5 271,10.2 "/>
<polygon class="st6" points="200,129.2 196.9,129.2 195.4,131.8 196.9,134.5 200,134.5 201.5,131.8 "/>
<polygon class="st5" points="206.1,118.8 202.7,118.8 201,121.7 202.7,124.7 206.1,124.7 207.8,121.7 "/>
<polygon class="st5" points="212,108.6 208.6,108.6 206.9,111.6 208.6,114.5 212,114.5 213.7,111.6 "/>
<polygon class="st5" points="217.9,98.5 214.5,98.5 212.8,101.4 214.5,104.4 217.9,104.4 219.6,101.4 "/>
<polygon class="st5" points="223.9,88.3 220.5,88.3 218.8,91.3 220.5,94.2 223.9,94.2 225.6,91.3 "/>
<polygon class="st5" points="229.8,78.2 226.4,78.2 224.7,81.1 226.4,84.1 229.8,84.1 231.5,81.1 "/>
<polygon class="st6" points="247.3,68.4 244.2,68.4 242.7,71 244.2,73.6 247.3,73.6 248.8,71 "/>
<polygon class="st7" points="252.9,58.6 250.3,58.6 249,60.9 250.3,63.1 252.9,63.1 254.2,60.9 "/>
<polygon class="st8" points="258.7,48.7 256.4,48.7 255.2,50.7 256.4,52.8 258.7,52.8 259.9,50.7 "/>
<polygon class="st9" points="264.5,38.8 262.4,38.8 261.4,40.6 262.4,42.4 264.5,42.4 265.6,40.6 "/>
<polygon class="st10" points="270.3,28.8 268.5,28.8 267.6,30.4 268.5,32 270.3,32 271.2,30.4 "/>
<polygon class="st11" points="276.1,18.9 274.5,18.9 273.8,20.3 274.5,21.7 276.1,21.7 276.9,20.3 "/>
<polygon class="st11" points="282,8.8 280.5,8.8 279.7,10.2 280.5,11.5 282,11.5 282.8,10.2 "/>
<polygon class="st6" points="211.7,129.2 208.7,129.2 207.2,131.8 208.7,134.5 211.7,134.5 213.3,131.8 "/>
<polygon class="st6" points="217.7,119.1 214.6,119.1 213.1,121.7 214.6,124.3 217.7,124.3 219.2,121.7 "/>
<polygon class="st6" points="223.6,108.9 220.6,108.9 219.1,111.6 220.6,114.2 223.6,114.2 225.1,111.6 "/>
<polygon class="st6" points="229.5,98.8 226.5,98.8 225,101.4 226.5,104.1 229.5,104.1 231.1,101.4 "/>
<polygon class="st6" points="235.5,88.7 232.4,88.7 230.9,91.3 232.4,93.9 235.5,93.9 237,91.3 "/>
<polygon class="st6" points="241.4,78.5 238.4,78.5 236.8,81.1 238.4,83.8 241.4,83.8 242.9,81.1 "/>
<polygon class="st7" points="258.9,68.7 256.2,68.7 254.9,71 256.2,73.3 258.9,73.3 260.2,71 "/>
<polygon class="st8" points="264.6,58.8 262.2,58.8 261,60.9 262.2,62.9 264.6,62.9 265.8,60.9 "/>
<polygon class="st9" points="270.4,48.9 268.3,48.9 267.2,50.7 268.3,52.5 270.4,52.5 271.4,50.7 "/>
<polygon class="st10" points="276.2,39 274.3,39 273.4,40.6 274.3,42.2 276.2,42.2 277.1,40.6 "/>
<polygon class="st11" points="282,29.1 280.4,29.1 279.6,30.4 280.4,31.8 282,31.8 282.8,30.4 "/>
<polygon class="st11" points="287.9,18.9 286.3,18.9 285.6,20.3 286.3,21.7 287.9,21.7 288.7,20.3 "/>
<polygon class="st12" points="293.7,9 292.4,9 291.7,10.2 292.4,11.3 293.7,11.3 294.4,10.2 "/>
<polygon class="st7" points="223.3,129.6 220.7,129.6 219.4,131.8 220.7,134.1 223.3,134.1 224.6,131.8 "/>
<polygon class="st7" points="229.3,119.4 226.6,119.4 225.3,121.7 226.6,124 229.3,124 230.6,121.7 "/>
<polygon class="st7" points="235.2,109.3 232.6,109.3 231.3,111.6 232.6,113.8 235.2,113.8 236.5,111.6 "/>
<polygon class="st7" points="241.1,99.2 238.5,99.2 237.2,101.4 238.5,103.7 241.1,103.7 242.4,101.4 "/>
<polygon class="st7" points="247.1,89 244.4,89 243.1,91.3 244.4,93.6 247.1,93.6 248.4,91.3 "/>
<polygon class="st7" points="253,78.9 250.4,78.9 249.1,81.1 250.4,83.4 253,83.4 254.3,81.1 "/>
<polygon class="st8" points="270.5,69 268.2,69 267,71 268.2,73 270.5,73 271.7,71 "/>
<polygon class="st9" points="276.2,59 274.1,59 273.1,60.9 274.1,62.7 276.2,62.7 277.3,60.9 "/>
<polygon class="st10" points="282,49.1 280.2,49.1 279.3,50.7 280.2,52.3 282,52.3 283,50.7 "/>
<polygon class="st11" points="287.8,39.2 286.3,39.2 285.5,40.6 286.3,41.9 287.8,41.9 288.6,40.6 "/>
<polygon class="st11" points="293.8,29.1 292.2,29.1 291.4,30.4 292.2,31.8 293.8,31.8 294.6,30.4 "/>
<polygon class="st12" points="299.6,19.2 298.3,19.2 297.6,20.3 298.3,21.4 299.6,21.4 300.2,20.3 "/>
<polygon class="st13" points="305.4,9.2 304.3,9.2 303.8,10.2 304.3,11.1 305.4,11.1 305.9,10.2 "/>
<polygon class="st8" points="235,129.8 232.6,129.8 231.5,131.8 232.6,133.9 235,133.9 236.2,131.8 "/>
<polygon class="st8" points="240.9,119.7 238.6,119.7 237.4,121.7 238.6,123.7 240.9,123.7 242.1,121.7 "/>
<polygon class="st8" points="246.9,109.5 244.5,109.5 243.3,111.6 244.5,113.6 246.9,113.6 248,111.6 "/>
<polygon class="st8" points="252.8,99.4 250.4,99.4 249.3,101.4 250.4,103.5 252.8,103.5 254,101.4 "/>
<polygon class="st8" points="258.7,89.2 256.4,89.2 255.2,91.3 256.4,93.3 258.7,93.3 259.9,91.3 "/>
<polygon class="st8" points="264.6,79.1 262.3,79.1 261.1,81.1 262.3,83.2 264.6,83.2 265.8,81.1 "/>
<polygon class="st9" points="282.2,69.2 280.1,69.2 279,71 280.1,72.8 282.2,72.8 283.2,71 "/>
<polygon class="st10" points="287.9,59.3 286.1,59.3 285.2,60.9 286.1,62.4 287.9,62.4 288.8,60.9 "/>
<polygon class="st11" points="293.7,49.4 292.1,49.4 291.3,50.7 292.1,52.1 293.7,52.1 294.5,50.7 "/>
<polygon class="st11" points="299.6,39.2 298.1,39.2 297.3,40.6 298.1,41.9 299.6,41.9 300.4,40.6 "/>
<polygon class="st12" points="305.4,29.3 304.1,29.3 303.5,30.4 304.1,31.6 305.4,31.6 306.1,30.4 "/>
<polygon class="st13" points="311.2,19.4 310.2,19.4 309.7,20.3 310.2,21.2 311.2,21.2 311.8,20.3 "/>
<polygon class="st14" points="317,9.5 316.2,9.5 315.9,10.2 316.2,10.8 317,10.8 317.4,10.2 "/>
<polygon class="st9" points="246.7,130 244.6,130 243.5,131.8 244.6,133.7 246.7,133.7 247.7,131.8 "/>
<polygon class="st9" points="252.6,119.9 250.5,119.9 249.4,121.7 250.5,123.5 252.6,123.5 253.6,121.7 "/>
<polygon class="st9" points="258.5,109.8 256.4,109.8 255.4,111.6 256.4,113.4 258.5,113.4 259.6,111.6 "/>
<polygon class="st9" points="264.4,99.6 262.4,99.6 261.3,101.4 262.4,103.2 264.4,103.2 265.5,101.4 "/>
<polygon class="st9" points="270.4,89.5 268.3,89.5 267.2,91.3 268.3,93.1 270.4,93.1 271.4,91.3 "/>
<polygon class="st9" points="276.3,79.3 274.2,79.3 273.2,81.1 274.2,83 276.3,83 277.4,81.1 "/>
<polygon class="st10" points="293.8,69.4 292,69.4 291.1,71 292,72.6 293.8,72.6 294.8,71 "/>
<polygon class="st11" points="299.6,59.5 298,59.5 297.2,60.9 298,62.2 299.6,62.2 300.4,60.9 "/>
<polygon class="st11" points="305.5,49.4 303.9,49.4 303.1,50.7 303.9,52.1 305.5,52.1 306.3,50.7 "/>
<polygon class="st12" points="311.3,39.4 310,39.4 309.3,40.6 310,41.7 311.3,41.7 311.9,40.6 "/>
<polygon class="st13" points="317.1,29.5 316,29.5 315.5,30.4 316,31.3 317.1,31.3 317.6,30.4 "/>
<polygon class="st14" points="322.9,19.6 322.1,19.6 321.7,20.3 322.1,21 322.9,21 323.3,20.3 "/>
<polygon class="st15" points="328.7,9.7 328.2,9.7 327.9,10.2 328.2,10.6 328.7,10.6 329,10.2 "/>
<polygon class="st10" points="258.3,130.3 256.5,130.3 255.6,131.8 256.5,133.4 258.3,133.4 259.2,131.8 "/>
<polygon class="st10" points="264.2,120.1 262.4,120.1 261.5,121.7 262.4,123.3 264.2,123.3 265.2,121.7 "/>
<polygon class="st10" points="270.2,110 268.3,110 267.4,111.6 268.3,113.2 270.2,113.2 271.1,111.6 "/>
<polygon class="st10" points="276.1,99.8 274.3,99.8 273.4,101.4 274.3,103 276.1,103 277,101.4 "/>
<polygon class="st10" points="282,89.7 280.2,89.7 279.3,91.3 280.2,92.9 282,92.9 283,91.3 "/>
<polygon class="st10" points="288,79.6 286.1,79.6 285.2,81.1 286.1,82.7 288,82.7 288.9,81.1 "/>
<polygon class="st11" points="305.5,69.6 303.9,69.6 303.1,71 303.9,72.4 305.5,72.4 306.3,71 "/>
<polygon class="st11" points="311.4,59.5 309.8,59.5 309,60.9 309.8,62.2 311.4,62.2 312.1,60.9 "/>
<polygon class="st12" points="317.2,49.6 315.8,49.6 315.2,50.7 315.8,51.9 317.2,51.9 317.8,50.7 "/>
<polygon class="st13" points="323,39.7 321.9,39.7 321.4,40.6 321.9,41.5 323,41.5 323.5,40.6 "/>
<polygon class="st14" points="328.8,29.8 328,29.8 327.6,30.4 328,31.1 328.8,31.1 329.1,30.4 "/>
<polygon class="st15" points="334.6,19.8 334,19.8 333.8,20.3 334,20.7 334.6,20.7 334.8,20.3 "/>
<polygon class="st16" points="340.4,9.9 340.1,9.9 340,10.2 340.1,10.4 340.4,10.4 340.5,10.2 "/>
<polygon class="st11" points="270,130.5 268.4,130.5 267.6,131.8 268.4,133.2 270,133.2 270.8,131.8 "/>
<polygon class="st11" points="275.9,120.3 274.3,120.3 273.6,121.7 274.3,123.1 275.9,123.1 276.7,121.7 "/>
<polygon class="st11" points="281.8,110.2 280.3,110.2 279.5,111.6 280.3,112.9 281.8,112.9 282.6,111.6 "/>
<polygon class="st11" points="287.8,100.1 286.2,100.1 285.4,101.4 286.2,102.8 287.8,102.8 288.6,101.4 "/>
<polygon class="st11" points="293.7,89.9 292.1,89.9 291.3,91.3 292.1,92.6 293.7,92.6 294.5,91.3 "/>
<polygon class="st11" points="299.6,79.8 298.1,79.8 297.3,81.1 298.1,82.5 299.6,82.5 300.4,81.1 "/>
<polygon class="st11" points="317.3,69.6 315.7,69.6 314.9,71 315.7,72.4 317.3,72.4 318.1,71 "/>
<polygon class="st12" points="323,59.7 321.7,59.7 321.1,60.9 321.7,62 323,62 323.7,60.9 "/>
<polygon class="st13" points="328.8,49.8 327.8,49.8 327.2,50.7 327.8,51.6 328.8,51.6 329.3,50.7 "/>
<polygon class="st14" points="334.6,39.9 333.8,39.9 333.4,40.6 333.8,41.3 334.6,41.3 335,40.6 "/>
<polygon class="st15" points="340.4,30 339.9,30 339.6,30.4 339.9,30.9 340.4,30.9 340.7,30.4 "/>
<polygon class="st11" points="281.8,130.5 280.2,130.5 279.4,131.8 280.2,133.2 281.8,133.2 282.6,131.8 "/>
<polygon class="st11" points="287.7,120.3 286.1,120.3 285.3,121.7 286.1,123.1 287.7,123.1 288.5,121.7 "/>
<polygon class="st11" points="293.6,110.2 292.1,110.2 291.3,111.6 292.1,112.9 293.6,112.9 294.4,111.6 "/>
<polygon class="st11" points="299.6,100.1 298,100.1 297.2,101.4 298,102.8 299.6,102.8 300.4,101.4 "/>
<polygon class="st11" points="305.5,89.9 303.9,89.9 303.1,91.3 303.9,92.6 305.5,92.6 306.3,91.3 "/>
<polygon class="st11" points="311.4,79.8 309.9,79.8 309.1,81.1 309.9,82.5 311.4,82.5 312.2,81.1 "/>
<polygon class="st12" points="329,69.9 327.7,69.9 327,71 327.7,72.1 329,72.1 329.6,71 "/>
<polygon class="st13" points="334.7,60 333.6,60 333.1,60.9 333.6,61.8 334.7,61.8 335.2,60.9 "/>
<polygon class="st14" points="340.5,50 339.7,50 339.3,50.7 339.7,51.4 340.5,51.4 340.9,50.7 "/>
<polygon class="st12" points="293.4,130.7 292.1,130.7 291.5,131.8 292.1,133 293.4,133 294.1,131.8 "/>
<polygon class="st12" points="299.4,120.6 298.1,120.6 297.4,121.7 298.1,122.8 299.4,122.8 300,121.7 "/>
<polygon class="st12" points="305.3,110.4 304,110.4 303.3,111.6 304,112.7 305.3,112.7 306,111.6 "/>
<polygon class="st12" points="311.2,100.3 309.9,100.3 309.3,101.4 309.9,102.6 311.2,102.6 311.9,101.4 "/>
<polygon class="st12" points="317.2,90.1 315.8,90.1 315.2,91.3 315.8,92.4 317.2,92.4 317.8,91.3 "/>
<polygon class="st12" points="323.1,80 321.8,80 321.1,81.1 321.8,82.3 323.1,82.3 323.7,81.1 "/>
<polygon class="st13" points="340.6,70.1 339.6,70.1 339.1,71 339.6,71.9 340.6,71.9 341.1,71 "/>
<polygon class="st13" points="305.1,130.9 304,130.9 303.5,131.8 304,132.8 305.1,132.8 305.6,131.8 "/>
<polygon class="st13" points="311,120.8 310,120.8 309.5,121.7 310,122.6 311,122.6 311.6,121.7 "/>
<polygon class="st13" points="317,110.7 315.9,110.7 315.4,111.6 315.9,112.5 317,112.5 317.5,111.6 "/>
<polygon class="st13" points="322.9,100.5 321.8,100.5 321.3,101.4 321.8,102.3 322.9,102.3 323.4,101.4 "/>
<polygon class="st13" points="328.8,90.4 327.8,90.4 327.2,91.3 327.8,92.2 328.8,92.2 329.3,91.3 "/>
<polygon class="st13" points="334.7,80.2 333.7,80.2 333.2,81.1 333.7,82 334.7,82 335.3,81.1 "/>
<polygon class="st14" points="316.8,131.2 316,131.2 315.6,131.8 316,132.5 316.8,132.5 317.2,131.8 "/>
<polygon class="st14" points="322.7,121 321.9,121 321.5,121.7 321.9,122.4 322.7,122.4 323.1,121.7 "/>
<polygon class="st14" points="328.6,110.9 327.8,110.9 327.4,111.6 327.8,112.2 328.6,112.2 329,111.6 "/>
<polygon class="st14" points="334.5,100.7 333.8,100.7 333.4,101.4 333.8,102.1 334.5,102.1 334.9,101.4 "/>
<polygon class="st14" points="340.5,90.6 339.7,90.6 339.3,91.3 339.7,92 340.5,92 340.9,91.3 "/>
<polygon class="st15" points="328.4,131.4 327.9,131.4 327.6,131.8 327.9,132.3 328.4,132.3 328.7,131.8 "/>
<polygon class="st15" points="334.3,121.3 333.8,121.3 333.6,121.7 333.8,122.2 334.3,122.2 334.6,121.7 "/>
<polygon class="st15" points="340.3,111.1 339.8,111.1 339.5,111.6 339.8,112 340.3,112 340.5,111.6 "/>
<polygon class="st16" points="340.1,131.6 339.8,131.6 339.7,131.8 339.8,132.1 340.1,132.1 340.2,131.8 "/>
</svg>
