<?xml version="1.0" encoding="utf-8"?>
<!-- Generator: Adobe Illustrator 25.4.0, SVG Export Plug-In . SVG Version: 6.00 Build 0)  -->
<svg version="1.1" id="Capa_1" xmlns="http://www.w3.org/2000/svg" xmlns:xlink="http://www.w3.org/1999/xlink" x="0px" y="0px"
	 viewBox="0 0 100 100" style="enable-background:new 0 0 100 100;" xml:space="preserve">
<style type="text/css">
	.st0{fill:#010202;stroke:#FFFFFF;stroke-width:2.0328;stroke-miterlimit:10;}
	.st1{display:none;}
	.st2{fill:#010202;stroke:#FFFFFF;stroke-width:0.7623;stroke-miterlimit:10;}
	.st3{display:inline;fill:#010202;stroke:#FFFFFF;stroke-width:0.7623;stroke-miterlimit:10;}
	.st4{display:inline;}
	.st5{fill:none;stroke:#FFFFFF;stroke-width:0.5082;stroke-miterlimit:10;}
	.st6{fill:#010202;stroke:#FFFFFF;stroke-width:1.0164;stroke-miterlimit:10;}
	.st7{display:inline;fill:#010202;stroke:#FFFFFF;stroke-width:1.0164;stroke-miterlimit:10;}
	.st8{display:none;fill:#010202;stroke:#FFFFFF;stroke-width:0.7623;stroke-miterlimit:10;}
	.st9{fill:#010202;stroke:#FFFFFF;stroke-width:1.0084;stroke-miterlimit:10;}
</style>
<g>
	<g>
		<polygon class="st0" points="50,1.3 22.8,12.9 15.8,43.6 21.8,47.5 15.5,60.6 22.6,73.1 34.4,75.1 31.5,87.9 39.6,98.7 50,98.7 
			58.5,98.7 68.3,88.3 65.4,74.6 77.7,73.2 84,61.2 77.3,43.9 71.5,45.2 80.7,39.2 77.3,13.5 		"/>
		<g>
			<g class="st1">
				<polygon class="st2" points="64.2,45.2 76.4,37.4 73.6,17.8 72,35.8 				"/>
				<polygon class="st3" points="27.3,16.3 20.2,39.7 23.6,44 43.4,46 27.4,38.2 				"/>
				<g class="st4">
					<line class="st5" x1="27.3" y1="19.5" x2="26.1" y2="20.6"/>
					<line class="st5" x1="27.4" y1="21" x2="25.3" y2="23.1"/>
					<polyline class="st5" points="21,37.1 21,37 27.3,30.7 					"/>
					<line class="st5" x1="27.4" y1="32.8" x2="20.3" y2="39.8"/>
					<line class="st5" x1="27.4" y1="34.7" x2="21.2" y2="40.9"/>
					<line class="st5" x1="27.4" y1="36.7" x2="22" y2="42"/>
					<line class="st5" x1="27.6" y1="38.4" x2="22.9" y2="43.1"/>
					<line class="st5" x1="29" y1="39" x2="24" y2="44"/>
					<line class="st5" x1="30.3" y1="39.7" x2="25.8" y2="44.2"/>
					<line class="st5" x1="31.7" y1="40.3" x2="27.6" y2="44.4"/>
					<line class="st5" x1="33" y1="41" x2="29.5" y2="44.4"/>
					<line class="st5" x1="34.3" y1="41.6" x2="31.3" y2="44.7"/>
					<line class="st5" x1="35.6" y1="42.3" x2="33.1" y2="44.8"/>
					<line class="st5" x1="37.2" y1="42.7" x2="34.7" y2="45.2"/>
					<line class="st5" x1="39.6" y1="44.3" x2="38.4" y2="45.5"/>
					<line class="st5" x1="38.5" y1="43.4" x2="36.6" y2="45.3"/>
					<line class="st5" x1="27.4" y1="22.9" x2="24.4" y2="25.8"/>
					<line class="st5" x1="27.3" y1="24.9" x2="23.6" y2="28.6"/>
					<line class="st5" x1="27.3" y1="26.8" x2="22.7" y2="31.4"/>
					<line class="st5" x1="27.3" y1="28.8" x2="21.9" y2="34.2"/>
				</g>
			</g>
			<g>
				<polygon class="st6" points="28.2,19.6 22.5,40.8 40.8,46.8 28.3,38.1 				"/>
				<g>
					<path class="st5" d="M27.2,23.5"/>
					<path class="st5" d="M28.2,22.5"/>
					<line class="st5" x1="28.3" y1="23.8" x2="26.7" y2="25.5"/>
					<line class="st5" x1="23.3" y1="37.5" x2="28.3" y2="32.6"/>
					<line class="st5" x1="28.3" y1="34.4" x2="22.6" y2="40"/>
					<line class="st5" x1="28.3" y1="36.1" x2="23.3" y2="41.1"/>
					<line class="st5" x1="28.3" y1="37.9" x2="24.7" y2="41.5"/>
					<line class="st5" x1="29.3" y1="38.7" x2="26" y2="41.9"/>
					<line class="st5" x1="30.2" y1="39.6" x2="27.4" y2="42.3"/>
					<line class="st5" x1="31.4" y1="40.2" x2="28.9" y2="42.6"/>
					<line class="st5" x1="32.7" y1="40.7" x2="30.3" y2="43.1"/>
					<line class="st5" x1="33.6" y1="41.6" x2="31.5" y2="43.6"/>
					<line class="st5" x1="34.7" y1="42.3" x2="33.1" y2="43.9"/>
					<line class="st5" x1="35.6" y1="43.2" x2="34.1" y2="44.6"/>
					<line class="st5" x1="28.3" y1="25.5" x2="26" y2="27.8"/>
					<line class="st5" x1="28.3" y1="27.3" x2="25.3" y2="30.1"/>
					<line class="st5" x1="28.3" y1="29" x2="24.7" y2="32.5"/>
					<line class="st5" x1="28.3" y1="30.8" x2="24" y2="35.1"/>
				</g>
			</g>
			<g>
				<polygon class="st6" points="27.4,51.3 23.1,59.9 26.6,67 41.8,68.7 45.3,63 43.6,55.3 				"/>
				<g>
					<line class="st5" x1="41.7" y1="54.8" x2="44.3" y2="57.8"/>
					<line class="st5" x1="39.4" y1="54.2" x2="44.8" y2="60.6"/>
					<line class="st5" x1="37.2" y1="53.7" x2="45.2" y2="63.1"/>
					<line class="st5" x1="34.9" y1="53.2" x2="44.4" y2="64.3"/>
					<line class="st5" x1="32.5" y1="52.6" x2="43.5" y2="65.4"/>
					<line class="st5" x1="30.3" y1="52" x2="42.7" y2="66.6"/>
					<polyline class="st5" points="27.7,51.2 27.7,51.2 41.9,67.8 					"/>
					<line class="st5" x1="26.7" y1="52.1" x2="40.9" y2="68.8"/>
					<line class="st5" x1="26" y1="53.3" x2="38.8" y2="68.4"/>
					<line class="st5" x1="25.3" y1="54.7" x2="36.9" y2="68.3"/>
					<line class="st5" x1="24.6" y1="56" x2="34.8" y2="67.9"/>
					<line class="st5" x1="24.2" y1="57.7" x2="32.8" y2="67.7"/>
					<line class="st5" x1="23.3" y1="58.7" x2="30.8" y2="67.6"/>
					<line class="st5" x1="23.6" y1="61.3" x2="28.8" y2="67.4"/>
					<line class="st5" x1="43.5" y1="65.4" x2="43.6" y2="65.6"/>
					<polyline class="st5" points="42.9,66.8 40.3,63.8 40.1,63.5 					"/>
					<line class="st5" x1="39.6" y1="65.1" x2="42.2" y2="68.2"/>
					<polyline class="st5" points="40.1,67.8 40.1,67.8 38.9,66.4 					"/>
					<line class="st5" x1="38.2" y1="67.6" x2="38.2" y2="67.7"/>
				</g>
			</g>
			<g class="st1">
				<polygon class="st7" points="50,67.3 46.3,75.6 48.7,78.6 50,78.6 51.4,78.6 53.8,75.6 				"/>
				<g class="st4">
					<g>
						<line class="st5" x1="50.6" y1="69.5" x2="46.7" y2="74"/>
						<line class="st5" x1="51.4" y1="70.4" x2="46.5" y2="76.2"/>
						<line class="st5" x1="51.9" y1="71.7" x2="47.4" y2="77"/>
						<line class="st5" x1="52.6" y1="72.8" x2="48.2" y2="78"/>
						<line class="st5" x1="53.1" y1="74.1" x2="49.1" y2="78.8"/>
					</g>
				</g>
			</g>
			<g class="st1">
				<polygon class="st3" points="50.1,67.3 45.9,77.3 50.1,79.1 54.6,77 				"/>
				<g class="st4">
					<path class="st5" d="M49.4,68.5"/>
					<g>
						<line class="st5" x1="50.9" y1="68.8" x2="48.5" y2="71.2"/>
						<line class="st5" x1="51.5" y1="70.1" x2="47.1" y2="74.3"/>
						<line class="st5" x1="52.1" y1="71.3" x2="46.1" y2="77.3"/>
						<line class="st5" x1="52.7" y1="72.6" x2="47.3" y2="77.9"/>
						<line class="st5" x1="53.2" y1="73.8" x2="48.6" y2="78.4"/>
						<line class="st5" x1="53.8" y1="75.1" x2="50.1" y2="78.8"/>
					</g>
				</g>
			</g>
			<g>
				<polygon class="st6" points="72.6,51.6 77.3,60.1 73.8,67.3 58.5,68.5 55.1,63.1 56.8,55.1 				"/>
				<g>
					<line class="st5" x1="70.8" y1="51.9" x2="74.8" y2="55.3"/>
					<line class="st5" x1="69.1" y1="52.3" x2="76.6" y2="58.5"/>
					<line class="st5" x1="67.4" y1="52.6" x2="77.3" y2="61"/>
					<line class="st5" x1="76.4" y1="62.1" x2="65.7" y2="53"/>
					<line class="st5" x1="63.8" y1="53.2" x2="76.1" y2="63.5"/>
					<line class="st5" x1="62.4" y1="53.9" x2="75.4" y2="64.8"/>
					<line class="st5" x1="60.6" y1="54.1" x2="74.8" y2="66.1"/>
					<line class="st5" x1="58.8" y1="54.4" x2="74.1" y2="67.3"/>
					<line class="st5" x1="57.2" y1="54.9" x2="72.2" y2="67.5"/>
					<line class="st5" x1="56.4" y1="56" x2="70.2" y2="67.6"/>
					<line class="st5" x1="56.2" y1="57.8" x2="68.3" y2="67.8"/>
					<line class="st5" x1="55.8" y1="59.4" x2="66.3" y2="67.9"/>
					<line class="st5" x1="55.5" y1="60.9" x2="64.3" y2="68.1"/>
					<line class="st5" x1="55.2" y1="62.4" x2="62.3" y2="68.3"/>
					<path class="st5" d="M74.8,66.1"/>
					<line class="st5" x1="56.2" y1="65.1" x2="60.3" y2="68.4"/>
				</g>
			</g>
			<polygon class="st8" points="22.4,39.4 28.1,16.5 33.4,14 36.1,18.5 30.5,41 25.1,43.5 			"/>
			<g>
				<polygon class="st9" points="50.2,69.1 53.2,73 54.1,76.9 50.5,76.2 46.4,76.9 47.3,73 				"/>
				<g>
					<line class="st5" x1="50.1" y1="69.6" x2="53.3" y2="73"/>
					<line class="st5" x1="49.3" y1="70.7" x2="54.1" y2="75.7"/>
					<line class="st5" x1="48.5" y1="71.9" x2="53" y2="76.6"/>
					<line class="st5" x1="47.6" y1="73" x2="50.5" y2="76"/>
					<line class="st5" x1="47.3" y1="74.6" x2="49" y2="76.5"/>
				</g>
			</g>
		</g>
	</g>
</g>
</svg>
